<svg data-name="Group 38" xmlns="http://www.w3.org/2000/svg" width="40" height="40" viewBox="0 0 40 40">
    <g data-name="Rectangle 24" style="stroke:#313131;fill:none">
        <path style="stroke:none" d="M0 0h40v40H0z"/>
        <path style="fill:none" d="M.5.5h39v39H.5z"/>
    </g>
    <path data-name="Icon awesome-twitter" d="M22.988 8.567c.016.228.016.455.016.683a14.838 14.838 0 0 1-14.94 14.94A14.839 14.839 0 0 1 0 21.833a10.863 10.863 0 0 0 1.268.065 10.517 10.517 0 0 0 6.519-2.243 5.26 5.26 0 0 1-4.91-3.642 6.622 6.622 0 0 0 .992.081 5.554 5.554 0 0 0 1.382-.179 5.252 5.252 0 0 1-4.211-5.153V10.7a5.288 5.288 0 0 0 2.374.667A5.259 5.259 0 0 1 1.788 4.34a14.926 14.926 0 0 0 10.828 5.495 5.928 5.928 0 0 1-.13-1.2 5.256 5.256 0 0 1 9.088-3.593 10.339 10.339 0 0 0 3.333-1.268A5.237 5.237 0 0 1 22.6 6.665a10.527 10.527 0 0 0 3.024-.813 11.288 11.288 0 0 1-2.634 2.715z" transform="translate(7.031 6.619)" style="fill:#313131"/>
</svg>
