<svg data-name="Group 39" xmlns="http://www.w3.org/2000/svg" width="40" height="40" viewBox="0 0 40 40">
    <g data-name="Rectangle 23" style="stroke:#313131;fill:none">
        <path style="stroke:none" d="M0 0h40v40H0z"/>
        <path style="fill:none" d="M.5.5h39v39H.5z"/>
    </g>
    <path data-name="Icon awesome-linkedin-in" d="M5.018 22.419H.37V7.451h4.648zM2.692 5.41a2.7 2.7 0 1 1 2.692-2.718A2.714 2.714 0 0 1 2.692 5.41zm19.722 17.009h-4.638v-7.286c0-1.736-.035-3.963-2.417-3.963-2.417 0-2.787 1.887-2.787 3.838v7.411H7.93V7.451h4.458v2.042h.065a4.884 4.884 0 0 1 4.4-2.417c4.7 0 5.569 3.1 5.569 7.121v8.222z" transform="translate(8.791 8.601)" style="fill:#313131"/>
</svg>
