<svg xmlns="http://www.w3.org/2000/svg" width="146.5" height="28.92" viewBox="0 0 146.5 28.92">
    <g data-name="Group 3">
        <path data-name="Icon metro-codepen" d="m31.062 23.617-13.5 9a.964.964 0 0 1-1.069 0l-13.5-9a.964.964 0 0 1-.429-.8v-9a.964.964 0 0 1 .429-.8l13.5-9a.964.964 0 0 1 1.069 0l13.5 9a.964.964 0 0 1 .429.8v9a.964.964 0 0 1-.429.8zm-14.031-8.641-5.01 3.34 5.01 3.34 5.01-3.34-5.01-3.34zm.964 8.355v6.68l10.794-7.2-5.01-3.34zm-1.928 0-5.784-3.856-5.01 3.34 10.794 7.2zm-7.522-5.015L4.5 15.619v5.395zm1.738-1.159 5.784-3.857V6.621l-10.794 7.2 5.01 3.34zm7.712-3.857 5.784 3.856 5.01-3.34-10.794-7.2V13.3zm7.522 5.015 4.046 2.7v-5.396z" transform="translate(-2.571 -3.856)" style="fill:#313131"/>
        <text transform="translate(93.5 24)" style="font-size:25px;font-family:SpaceQuest,Space Quest;fill:#313131"><tspan x="-52.185" y="0">Appcom</tspan></text>
    </g>
</svg>
